<?xml version="1.0" encoding="utf-8"?>
<!-- Generator: Adobe Illustrator 26.3.1, SVG Export Plug-In . SVG Version: 6.00 Build 0)  -->
<svg version="1.1" id="Camada_1" xmlns="http://www.w3.org/2000/svg" xmlns:xlink="http://www.w3.org/1999/xlink" x="0px" y="0px"
	 viewBox="0 0 443.5 385.9" style="enable-background:new 0 0 443.5 385.9;" xml:space="preserve">
<style type="text/css">
	.st0{display:none;}
	.st1{fill:none;stroke:#F3EFD4;stroke-width:19;stroke-linecap:round;stroke-miterlimit:10;}
</style>
<g id="Camada_1_00000038395978573424881700000017644196907181781160_" class="st0">
	
		<image style="display:inline;overflow:visible;enable-background:new    ;" width="273" height="182" xlink:href="B25E3397.jpeg"  transform="matrix(1.4752 0 0 1.4768 14.4817 79.0792)">
	</image>
	
		<image style="display:inline;overflow:visible;enable-background:new    ;" width="501" height="403" xlink:href="B25E3395.jpeg"  transform="matrix(0.9975 0 0 0.9975 -18.1228 -10.503)">
	</image>
</g>
<g id="vetor">
	<path class="st1" d="M348.4,141.5c-109.2-38-126.3,29.9-125.2,35.9c0.1,0.3,0-0.3,0,0c8.3,119.8,168.7-28.6,193.2,88.3
		c20.2,96.1-71.3,96.8-82.1,97.2c-0.3,0-40.7-1.1-41-1.1l-127.8-2.3c-5.1,0.1-9.2-3.9-9.5-8.9l-7.7-171.7c-0.2-5.1-7.3-6.4-9.3-1.7
		l-8.2,19c-2.1,4.9-8.2,6.6-12.6,3.5l-94.9-67.3c-4.5-3.2-5.3-9.6-1.6-13.8l69.7-78.9c2.4-2.7,5.8-4.4,9.4-4.8l89.2-8.2
		c4.7-0.4,8.9,3.1,9.2,7.8c1.2,18.1,9.7,61.4,62.1,59.4c52.1-2,41-13.8,42.7,4.4c5.4,58.4,37.2,211.1-38.9,223.8
		c-33.1,5.5-65.8-5.3-73.5-38c-1-4.5-4.4-56.4-4.5-60.2c-1.1-33.5-4.1-82.4-4.1-82.4"/>
</g>
</svg>
